<?xml version="1.0" encoding="utf-8"?>
<!-- Generator: Adobe Illustrator 16.0.4, SVG Export Plug-In . SVG Version: 6.00 Build 0)  -->
<!DOCTYPE svg PUBLIC "-//W3C//DTD SVG 1.1//EN" "http://www.w3.org/Graphics/SVG/1.1/DTD/svg11.dtd">
<svg version="1.1" id="Layer_1" xmlns="http://www.w3.org/2000/svg" xmlns:xlink="http://www.w3.org/1999/xlink" x="0px" y="0px"
	 width="384px" height="384px" viewBox="0 0 384 384" enable-background="new 0 0 384 384" xml:space="preserve">
<path fill="#FFE6DE" d="M368,96v80H240V96H368z"/>
<path fill="#FFE6DE" d="M320,16l16,80h-96V64L320,16z"/>
<path fill="#FFE6DE" d="M328,176v176c0,8.801-7.199,16-16,16h-72V176H328z"/>
<path fill="#FFE6DE" d="M240,176v192h-96V96h96V176z"/>
<path fill="#FFE6DE" d="M240,64v32h-96V48c0-17.68,14.32-32,32-32h32c17.68,0,32,14.32,32,32V64z"/>
<path fill="#FFE6DE" d="M144,176v192H72c-8.801,0-16-7.199-16-16V176H144z"/>
<path fill="#FFE6DE" d="M144,96v80H16V96H144z"/>
<path fill="#FFE6DE" d="M144,64v32H48l16-80L144,64z"/>
<path fill="#0F7D80" d="M368,80h-18.887l-13.426-67.137c-1.016-5.102-4.457-9.391-9.207-11.496
	c-4.754-2.102-10.238-1.766-14.711,0.914l-57.191,34.312C249.441,15.625,230.535,0,208,0h-32c-22.535,0-41.441,15.625-46.574,36.602
	L72.23,2.289c-4.469-2.68-9.949-3.016-14.711-0.914c-4.758,2.105-8.191,6.395-9.207,11.496L34.887,80H16C7.168,80,0,87.168,0,96v80
	c0,8.832,7.168,16,16,16h24v160c0,17.648,14.352,32,32,32h240c17.648,0,32-14.352,32-32V192h24c8.832,0,16-7.168,16-16V96
	C384,87.168,376.832,80,368,80z M316.488,80H256v-6.945l52.77-31.652L316.488,80z M176,32h32c8.824,0,16,7.176,16,16v32h-64V48
	C160,39.176,167.176,32,176,32z M224,352h-64V112h64V352z M75.23,41.402L128,73.055V80H67.512L75.23,41.402z M32,112h15.977h0.039
	h0.047H128v48H32V112z M72,192h56v160H72V192z M312,352h-56V192h56V352z M352,160h-96v-48h79.938h0.047h0.039H352V160z"/>
</svg>
